<?xml version="1.0" encoding="utf-8"?>
<!-- Generator: Adobe Illustrator 17.0.0, SVG Export Plug-In . SVG Version: 6.00 Build 0)  -->
<!DOCTYPE svg PUBLIC "-//W3C//DTD SVG 1.1//EN" "http://www.w3.org/Graphics/SVG/1.1/DTD/svg11.dtd">
<svg version="1.1" xmlns="http://www.w3.org/2000/svg" xmlns:xlink="http://www.w3.org/1999/xlink" x="0px" y="0px" width="256px"
	 height="256px" viewBox="0 0 256 256" enable-background="new 0 0 256 256" xml:space="preserve">
<g id="Calque_2" display="none">
	<polygon display="inline" fill="none" stroke="#020000" stroke-width="18" stroke-miterlimit="10" points="193.323,231.114 
		127.714,195.118 61.122,229.262 74.786,155.16 22.047,101.806 96.101,92.004 130.099,24.886 162.202,92.93 235.953,104.803 
		181.74,156.658 	"/>
</g>
<g id="Calque_1" display="none">
	<polygon display="inline" fill="none" stroke="#0F7844" stroke-width="18" stroke-miterlimit="10" points="183.601,216.529 
		127.908,185.974 71.381,214.957 82.98,152.055 38.212,106.765 101.074,98.445 129.933,41.471 157.184,99.231 219.788,109.309 
		173.768,153.327 	"/>
</g>
<g id="Calque_1_-_copie" display="none">
	<polygon display="inline" fill="none" stroke="#384792" stroke-width="18" stroke-miterlimit="10" points="176.919,205.818 
		128.042,179.002 78.432,204.438 88.612,149.234 49.322,109.486 104.491,102.184 129.819,52.182 153.735,102.874 208.678,111.719 
		168.29,150.35 	"/>
</g>
<g id="Calque_1_-_copie_2">
	<polygon fill="none" stroke="#824690" stroke-width="18" stroke-miterlimit="10" points="169.705,193.42 128.196,170.926 
		86.073,192.248 94.71,145.957 61.34,112.621 108.187,106.506 129.686,64.58 150.003,107.092 196.66,114.517 162.369,146.905 	"/>
</g>
</svg>
