<?xml version="1.0" encoding="utf-8"?>
<!-- Generator: Adobe Illustrator 17.0.0, SVG Export Plug-In . SVG Version: 6.00 Build 0)  -->
<!DOCTYPE svg PUBLIC "-//W3C//DTD SVG 1.1//EN" "http://www.w3.org/Graphics/SVG/1.1/DTD/svg11.dtd">
<svg version="1.1" xmlns="http://www.w3.org/2000/svg" xmlns:xlink="http://www.w3.org/1999/xlink" x="0px" y="0px" width="256px"
	 height="256px" viewBox="0 0 256 256" enable-background="new 0 0 256 256" xml:space="preserve">
<g id="Calque_2" display="none">
	<linearGradient id="SVGID_1_" gradientUnits="userSpaceOnUse" x1="2.9204" y1="126.1015" x2="255.2555" y2="126.1015">
		<stop  offset="0" style="stop-color:#0D85C0"/>
		<stop  offset="1" style="stop-color:#0D85C0;stop-opacity:0"/>
	</linearGradient>
	<polygon display="inline" fill="none" stroke="url(#SVGID_1_)" stroke-width="18" stroke-miterlimit="10" points="193.323,231.114 
		127.714,195.118 61.122,229.262 74.786,155.16 22.047,101.806 96.101,92.004 130.099,24.886 162.202,92.93 235.953,104.803 
		181.74,156.658 	"/>
	<linearGradient id="SVGID_2_" gradientUnits="userSpaceOnUse" x1="4" y1="49" x2="88" y2="49">
		<stop  offset="0" style="stop-color:#0D85C0"/>
		<stop  offset="1" style="stop-color:#0D85C0;stop-opacity:0"/>
	</linearGradient>
	<circle display="inline" fill="none" stroke="url(#SVGID_2_)" stroke-width="18" stroke-miterlimit="10" cx="46" cy="49" r="33"/>
	<linearGradient id="SVGID_3_" gradientUnits="userSpaceOnUse" x1="166" y1="51" x2="254" y2="51">
		<stop  offset="0" style="stop-color:#0D85C0"/>
		<stop  offset="1" style="stop-color:#0D85C0;stop-opacity:0"/>
	</linearGradient>
	<circle display="inline" fill="none" stroke="url(#SVGID_3_)" stroke-width="18" stroke-miterlimit="10" cx="210" cy="51" r="35"/>
	<linearGradient id="SVGID_4_" gradientUnits="userSpaceOnUse" x1="201" y1="199" x2="245" y2="199">
		<stop  offset="0" style="stop-color:#0D85C0"/>
		<stop  offset="1" style="stop-color:#0D85C0;stop-opacity:0"/>
	</linearGradient>
	
		<circle display="inline" fill="none" stroke="url(#SVGID_4_)" stroke-width="18" stroke-miterlimit="10" cx="223" cy="199" r="13"/>
	<linearGradient id="SVGID_5_" gradientUnits="userSpaceOnUse" x1="4" y1="167" x2="40" y2="167">
		<stop  offset="0" style="stop-color:#0D85C0"/>
		<stop  offset="1" style="stop-color:#0D85C0;stop-opacity:0"/>
	</linearGradient>
	<circle display="inline" fill="none" stroke="url(#SVGID_5_)" stroke-width="18" stroke-miterlimit="10" cx="22" cy="167" r="9"/>
	<linearGradient id="SVGID_6_" gradientUnits="userSpaceOnUse" x1="22" y1="207.5" x2="49" y2="207.5">
		<stop  offset="0" style="stop-color:#0D85C0"/>
		<stop  offset="1" style="stop-color:#0D85C0;stop-opacity:0"/>
	</linearGradient>
	
		<circle display="inline" fill="none" stroke="url(#SVGID_6_)" stroke-width="18" stroke-miterlimit="10" cx="35.5" cy="207.5" r="4.5"/>
</g>
<g id="Calque_1" display="none">
	<polygon display="inline" fill="none" stroke="#0F7844" stroke-width="18" stroke-miterlimit="10" points="183.601,216.529 
		127.908,185.974 71.381,214.957 82.98,152.055 38.212,106.765 101.074,98.445 129.933,41.471 157.184,99.231 219.788,109.309 
		173.768,153.327 	"/>
</g>
<g id="Calque_1_-_copie" display="none">
	<linearGradient id="SVGID_7_" gradientUnits="userSpaceOnUse" x1="30.1953" y1="127.1015" x2="227.9807" y2="127.1015">
		<stop  offset="0" style="stop-color:#FFEC5E"/>
		<stop  offset="0.0595" style="stop-color:#FFDA51"/>
		<stop  offset="0.1303" style="stop-color:#FFCB47"/>
		<stop  offset="0.2032" style="stop-color:#FFC342"/>
		<stop  offset="0.2809" style="stop-color:#FFC041"/>
		<stop  offset="0.6685" style="stop-color:#F58C4C"/>
		<stop  offset="0.8876" style="stop-color:#EE6744"/>
		<stop  offset="1" style="stop-color:#EA433F"/>
	</linearGradient>
	<polygon display="inline" fill="none" stroke="url(#SVGID_7_)" stroke-width="18" stroke-miterlimit="10" points="176.919,205.818 
		128.042,179.002 78.432,204.438 88.612,149.234 49.322,109.486 104.491,102.184 129.819,52.182 153.735,102.874 208.678,111.719 
		168.29,150.35 	"/>
	<linearGradient id="SVGID_8_" gradientUnits="userSpaceOnUse" x1="164" y1="50.5" x2="245" y2="50.5">
		<stop  offset="0" style="stop-color:#0D85C0"/>
		<stop  offset="1" style="stop-color:#0D85C0;stop-opacity:0"/>
	</linearGradient>
	
		<circle display="inline" fill="none" stroke="url(#SVGID_8_)" stroke-width="18" stroke-miterlimit="10" cx="204.5" cy="50.5" r="31.5"/>
</g>
<g id="Calque_1_-_copie_2" display="none">
	<polygon display="inline" fill="none" stroke="#824690" stroke-width="18" stroke-miterlimit="10" points="169.705,193.42 
		128.196,170.926 86.073,192.248 94.71,145.957 61.34,112.621 108.187,106.506 129.686,64.58 150.003,107.092 196.66,114.517 
		162.369,146.905 	"/>
</g>
<g id="Calque_1_-_copie_3" display="none">
	<polygon display="inline" fill="none" stroke="#D42B69" stroke-width="18" stroke-miterlimit="10" points="162.54,181.08 
		128.338,162.546 93.63,180.115 100.746,141.972 73.25,114.504 111.851,109.465 129.566,74.92 146.306,109.948 184.75,116.066 
		156.496,142.754 	"/>
</g>
<g id="Calque_1_-_copie_4">
	<polygon fill="#F98F39" stroke="#F57034" stroke-width="18" stroke-miterlimit="10" points="150.649,160 128.601,148.809 
		106.248,159.378 110.81,136.394 93.078,119.824 117.947,116.81 129.341,96 140.148,117.121 164.922,120.83 146.732,136.898 	"/>
	<linearGradient id="SVGID_9_" gradientUnits="userSpaceOnUse" x1="24" y1="43.5" x2="65" y2="43.5">
		<stop  offset="0" style="stop-color:#0D85C0"/>
		<stop  offset="1" style="stop-color:#0D85C0;stop-opacity:0"/>
	</linearGradient>
	<ellipse fill="url(#SVGID_9_)" cx="44.5" cy="43.5" rx="20.5" ry="19.5"/>
	<linearGradient id="SVGID_10_" gradientUnits="userSpaceOnUse" x1="184" y1="48" x2="229" y2="48">
		<stop  offset="0" style="stop-color:#FFEC5E"/>
		<stop  offset="0.0595" style="stop-color:#FFDA51"/>
		<stop  offset="0.1303" style="stop-color:#FFCB47"/>
		<stop  offset="0.2032" style="stop-color:#FFC342"/>
		<stop  offset="0.2809" style="stop-color:#FFC041"/>
		<stop  offset="0.6685" style="stop-color:#F58C4C"/>
		<stop  offset="0.8876" style="stop-color:#EE6744"/>
		<stop  offset="1" style="stop-color:#EA433F"/>
	</linearGradient>
	<ellipse fill="url(#SVGID_10_)" cx="206.5" cy="48" rx="22.5" ry="24"/>
	<linearGradient id="SVGID_11_" gradientUnits="userSpaceOnUse" x1="181" y1="219" x2="238" y2="219">
		<stop  offset="0" style="stop-color:#0D85C0"/>
		<stop  offset="1" style="stop-color:#0D85C0;stop-opacity:0"/>
	</linearGradient>
	
		<ellipse fill="#F98F39" stroke="url(#SVGID_11_)" stroke-width="18" stroke-miterlimit="10" cx="209.5" cy="219" rx="19.5" ry="19"/>
	<linearGradient id="SVGID_12_" gradientUnits="userSpaceOnUse" x1="24" y1="224" x2="71" y2="224">
		<stop  offset="0" style="stop-color:#FFEC5E"/>
		<stop  offset="0.0595" style="stop-color:#FFDA51"/>
		<stop  offset="0.1303" style="stop-color:#FFCB47"/>
		<stop  offset="0.2032" style="stop-color:#FFC342"/>
		<stop  offset="0.2809" style="stop-color:#FFC041"/>
		<stop  offset="0.6685" style="stop-color:#F58C4C"/>
		<stop  offset="0.8876" style="stop-color:#EE6744"/>
		<stop  offset="1" style="stop-color:#EA433F"/>
	</linearGradient>
	<ellipse fill="url(#SVGID_12_)" cx="47.5" cy="224" rx="23.5" ry="21"/>
	<text transform="matrix(0.6732 0 0 1 85.0003 36.4019)" fill="#00633C" font-family="'MyriadPro-Regular'" font-size="27">Yoooooooo</text>
</g>
</svg>
